<?xml version="1.0" encoding="UTF-8"?>
<svg width="24px" height="24px" viewBox="0 0 24 24" version="1.1" xmlns="http://www.w3.org/2000/svg">
    <title>FastAPI</title>
    <g stroke="none" stroke-width="1" fill="none" fill-rule="evenodd">
        <path d="M12 0C5.375 0 0 5.375 0 12s5.375 12 12 12 12-5.375 12-12S18.625 0 12 0zm-.75 4.5h1.5v3h-1.5v-3zm6.75 3h-3v1.5h3v-1.5zm-9 0h-3v1.5h3v-1.5zm4.5 0h-1.5v9h1.5v-9zm4.5 3h-3v1.5h3v-1.5zm-9 0h-3v1.5h3v-1.5zm4.5 6h-1.5v3h1.5v-3z" fill="#059669" fill-rule="nonzero"/>
    </g>
</svg> 