<?xml version="1.0" encoding="UTF-8"?>
<svg width="24px" height="24px" viewBox="0 0 24 24" version="1.1" xmlns="http://www.w3.org/2000/svg">
    <title>Node.js</title>
    <g stroke="none" stroke-width="1" fill="none" fill-rule="evenodd">
        <path d="M12 0C5.375 0 0 5.375 0 12s5.375 12 12 12 12-5.375 12-12S18.625 0 12 0zm-1.25 18.266c0 .25-.125.375-.375.375-.078 0-.156-.016-.234-.047l-2.953-1.703c-.25-.141-.375-.406-.375-.688V8.016c0-.25.125-.375.375-.375.078 0 .156.016.234.047l2.953 1.703c.25.141.375.406.375.688v8.187zm.609-4.922c0 .25-.125.375-.375.375-.078 0-.156-.016-.234-.047l-2.953-1.703c-.25-.141-.375-.406-.375-.688V3.094c0-.25.125-.375.375-.375.078 0 .156.016.234.047l2.953 1.703c.25.141.375.406.375.688v8.187zm8.266 1.703c0 .25-.125.375-.375.375-.078 0-.156-.016-.234-.047l-2.953-1.703c-.25-.141-.375-.406-.375-.688V5.797c0-.25.125-.375.375-.375.078 0 .156.016.234.047l2.953 1.703c.25.141.375.406.375.688v8.187z" fill="#339933" fill-rule="nonzero"/>
    </g>
</svg>