<?xml version="1.0" encoding="UTF-8"?>
<svg width="24px" height="24px" viewBox="0 0 24 24" version="1.1" xmlns="http://www.w3.org/2000/svg">
    <title>Python</title>
    <g stroke="none" stroke-width="1" fill="none" fill-rule="evenodd">
        <path d="M11.971,0C5.995,0,6.365,2.419,6.365,2.419L6.373,4.904H12.06v0.577H3.977c0,0-3.996-0.453-3.996,5.853 c0,6.307,3.489,6.083,3.489,6.083h2.081V14.86c0,0-0.112-3.489,3.432-3.489h5.927c0,0,3.322,0.054,3.322-3.21V3.066 c0,0,0.504-3.066-6.261-3.066L11.971,0z M8.801,1.704c0.59,0,1.067,0.477,1.067,1.067c0,0.589-0.477,1.067-1.067,1.067 S7.734,3.36,7.734,2.771C7.734,2.182,8.211,1.704,8.801,1.704z" fill="#3776AB" fill-rule="nonzero"/>
        <path d="M12.029,24c5.976,0,5.606-2.419,5.606-2.419l-0.008-2.485H11.94v-0.577h8.083c0,0,3.996,0.453,3.996-5.853 c0-6.307-3.489-6.083-3.489-6.083h-2.081v2.557c0,0,0.112,3.489-3.432,3.489H8.09c0,0-3.322-0.054-3.322,3.21v5.095 c0,0-0.504,3.066,6.261,3.066L12.029,24z M15.199,22.296c-0.59,0-1.067-0.477-1.067-1.067c0-0.589,0.477-1.067,1.067-1.067 s1.067,0.478,1.067,1.067C16.266,21.818,15.789,22.296,15.199,22.296z" fill="#FFD43B" fill-rule="nonzero"/>
    </g>
</svg> 